<svg id="Layer_1" data-name="Layer 1" xmlns="http://www.w3.org/2000/svg" viewBox="0 0 364.83 512"><defs><style>.cls-1{fill:#b22222;}</style></defs><path class="cls-1" d="M320.77,18.26,331.45,0H180.81l11,18.26Z" transform="translate(-73.63)"/><path class="cls-1" d="M278.23,91.3,288.82,73H224.45l11,18.26Z" transform="translate(-73.63)"/><path class="cls-1" d="M310.18,36.52H202.63l11,18.26H299.5Z" transform="translate(-73.63)"/><path class="cls-1" d="M298.77,197.39,397.37,33a53.19,53.19,0,0,0-11.59-17.17L287.72,178.94Z" transform="translate(-73.63)"/><path class="cls-1" d="M267.27,144.8l9.86,16.43L370.8,5.3A52.81,52.81,0,0,0,352.36.37L291.28,105Z" transform="translate(-73.63)"/><path class="cls-1" d="M320.4,233.63l63.37-105.36a126.86,126.86,0,0,0,18.35-65.91V60.53L309.36,215.1Z" transform="translate(-73.63)"/><path class="cls-1" d="M312.65,256.09a.09.09,0,0,1-.1-.09L248.83,149.45c-.09-.27-.28-.54-.37-.81L159.81.37a54.36,54.36,0,0,0-19.35,5.29L408.51,452,438.45,461Z" transform="translate(-73.63)"/><path class="cls-1" d="M128.32,128.27,262.16,356.79l90.57,154.57,9.86-26.93L110,62.45A127.26,127.26,0,0,0,128.32,128.27Z" transform="translate(-73.63)"/><path class="cls-1" d="M73.63,461.06l46.92-11.87a5.37,5.37,0,0,1,1.19-.19,27.26,27.26,0,0,1,28.85,18.63L161.09,512l82.72-150.37-52.87-90.29Zm78.21-35.53L146.48,438l-6.63-11.87-13.45-1.2,9.13-10-2.95-13.24,12.31,5.67,11.65-6.92L155,413.93l10.18,8.93ZM194,398.46l-5.36,12.45L182,399.05l-13.49-1.26,9.2-10-3-13.23L187,380.29l11.66-6.92-1.6,13.46,10.19,8.95Zm12.1-74.19-1.6,13.46,10.19,8.95-13.3,2.65L196,361.78l-6.62-11.87-13.5-1.25,9.2-10-3-13.19,12.31,5.67Z" transform="translate(-73.63)"/><path class="cls-1" d="M114.16,34,371,462.88a27.62,27.62,0,0,1,15.16-12.6L125.67,16.43A54.17,54.17,0,0,0,114.16,34Z" transform="translate(-73.63)"/></svg>