<svg id="Layer_2" data-name="Layer 2" xmlns="http://www.w3.org/2000/svg" viewBox="0 0 259.96 274.85"><defs><style>.cls-1{fill:#b22222;}</style></defs><path class="cls-1" d="M680,1047.62l-21.85-6.11A26.57,26.57,0,0,0,673.8,1019c1.28-17.62-13.91-36.76-22.21-42.51s-18.51,0-18.51,0l-45,25.36a1.7,1.7,0,0,0-.65,2.34,3.28,3.28,0,0,1,.58,1.53,3.77,3.77,0,0,1-4,3.55c-2.07,0-3.73-3.64-3.85-4.25a1,1,0,0,0,0-.14C575.34,996,565,996.81,565,996.81s-10.13-.84-14.9,8.09a.27.27,0,0,0,0,.14c-.12.61-1.79,4.25-3.86,4.25a3.77,3.77,0,0,1-4-3.55,3.28,3.28,0,0,1,.58-1.53,1.7,1.7,0,0,0-.65-2.34l-45-25.36s-10.21-5.74-18.51,0-23.49,24.89-22.21,42.51a26,26,0,0,0,11.05,19.8l-1.14.32L436,1047.62l-8,2.23v61.7l8,7.3v130H680v-130l8-7.3v-61.7Zm-242,9.82.69-.19,27.65-7.73v50.81l-28.34,4.9Zm33.13,181.37H446V1114.44l-.42-.38,25.55-4.41Zm6.57-212.64c-10.89-6.75-9.7-11.91-4.76-16.88s14.81,0,14.81,0a307.76,307.76,0,0,1,34.9,14.11l-31.31,8.75A58.69,58.69,0,0,1,477.72,1026.17ZM553,1238.81H507.79V1103.32l45.21-7.81Zm0-153.45L503,1094v-54.72l50-14Zm55.21,153.45H563v-143.3l45.21,7.81ZM613,1094l-50-8.64v-60l50,14Zm16.32-60.54L603,1026.09c16.47-8.27,39.53-16.8,39.53-16.8s9.88-5,14.81,0,6.13,10.13-4.76,16.88c-7.42,4.59-15.93,6.8-20.61,7.73Zm40.66,81v124.37H644.85V1109.65l25.55,4.41Zm8-9.21-28.34-4.9v-50.81l27.65,7.73.69.19Z" transform="translate(-428.02 -973.96)"/></svg>